<svg version="1.1" id="Layer_1" xmlns="http://www.w3.org/2000/svg" xmlns:xlink="http://www.w3.org/1999/xlink" x="0px" y="0px"
	 width="100%" viewBox="0 0 1920 1687" enable-background="new 0 0 1920 1687" xml:space="preserve">
<path fill="#FFFFFF" opacity="1.000000" stroke="none" 
	d="
M1088.000000,1688.000000 
	C725.333313,1688.000000 363.166656,1688.000000 1.000000,1688.000000 
	C1.000000,1125.666626 1.000000,563.333313 1.000000,1.000000 
	C641.000000,1.000000 1281.000000,1.000000 1921.000000,1.000000 
	C1921.000000,563.333313 1921.000000,1125.666626 1921.000000,1688.000000 
	C1643.500000,1688.000000 1366.000000,1688.000000 1088.000000,1688.000000 
M1260.615845,1516.964844 
	C1270.723389,1521.449341 1280.810669,1525.980347 1290.943726,1530.406372 
	C1302.667969,1535.527466 1314.353271,1540.750977 1326.201660,1545.570801 
	C1337.919189,1550.337158 1349.757202,1554.827515 1361.665405,1559.095337 
	C1367.369019,1561.139404 1373.319946,1563.575684 1379.223389,1563.759399 
	C1392.558228,1564.173950 1402.239136,1556.227905 1410.928223,1547.166748 
	C1413.561035,1544.421143 1414.947632,1539.846313 1418.013794,1538.280151 
	C1424.814331,1534.806641 1430.841553,1531.131348 1434.118896,1523.841187 
	C1434.949219,1521.994141 1436.763428,1520.339600 1438.517212,1519.198853 
	C1448.214722,1512.891724 1455.641602,1504.298462 1461.902832,1494.874146 
	C1473.994385,1476.673950 1482.451172,1456.746338 1486.895386,1435.331299 
	C1489.460815,1422.969727 1491.995605,1410.453613 1492.734375,1397.900635 
	C1493.559326,1383.884399 1492.997314,1369.691406 1491.812622,1355.679077 
	C1490.653564,1341.972168 1488.697876,1328.232056 1485.751221,1314.800537 
	C1481.174072,1293.935913 1475.623901,1273.277466 1470.179199,1252.612549 
	C1465.559937,1235.080811 1460.701660,1217.606323 1455.588867,1200.212280 
	C1450.709229,1183.611328 1445.566895,1167.080688 1440.167969,1150.641357 
	C1434.474243,1133.303833 1428.526367,1116.043823 1422.342041,1098.875244 
	C1417.081299,1084.270508 1411.449463,1069.795288 1405.752563,1055.353149 
	C1400.828613,1042.869995 1395.582275,1030.513794 1390.703491,1018.648926 
	C1402.482422,1017.439758 1414.462036,1016.747620 1426.241699,1014.827576 
	C1435.392700,1013.335999 1444.742188,1011.363831 1453.213257,1007.751953 
	C1470.882690,1000.217957 1487.955078,991.296509 1505.414062,983.251892 
	C1519.534424,976.745667 1533.754883,970.429260 1548.129150,964.510193 
	C1560.710327,959.329529 1573.287109,953.782837 1586.365723,950.246277 
	C1608.087158,944.372375 1630.182007,939.857361 1652.169678,934.997009 
	C1675.456299,929.849548 1698.824219,925.069580 1722.114380,919.937439 
	C1742.553833,915.433594 1762.900024,910.503845 1783.354004,906.069153 
	C1797.061523,903.097107 1810.973877,901.039856 1824.622803,897.840332 
	C1832.529419,895.987000 1840.038452,892.498230 1847.828125,890.071411 
	C1860.306396,886.183899 1870.659912,878.952087 1880.203491,870.309326 
	C1886.444946,864.656860 1892.611206,858.907593 1899.078247,853.522522 
	C1904.862427,848.706360 1906.452026,842.964355 1903.246704,835.735352 
	C1901.880005,832.652893 1900.403320,829.619324 1899.005859,826.550171 
	C1894.562866,816.791870 1890.417969,806.883972 1885.594727,797.317932 
	C1882.634644,791.447510 1878.650146,786.092896 1875.115234,780.513245 
	C1866.246338,766.514160 1858.003174,751.884033 1845.257568,741.000183 
	C1832.523071,730.125610 1819.229980,719.835144 1805.619507,710.072388 
	C1783.640015,694.306274 1760.037476,681.257263 1735.520752,669.782349 
	C1710.050659,657.861206 1683.896606,647.930298 1656.816040,640.329895 
	C1634.372437,634.031067 1611.408936,630.857605 1588.290649,629.174866 
	C1571.436890,627.948181 1554.460571,628.494019 1537.548828,627.944092 
	C1526.039307,627.569946 1514.547485,626.657959 1503.046753,626.004211 
	C1485.290649,624.994812 1467.542480,623.763000 1449.773193,623.107056 
	C1441.710693,622.809448 1433.599609,623.558472 1425.521484,624.021973 
	C1409.430176,624.945312 1393.314697,625.655762 1377.270630,627.123535 
	C1366.959717,628.066772 1356.762329,630.230835 1346.505981,631.795166 
	C1340.781372,632.668335 1335.040527,633.434021 1328.439209,634.371277 
	C1329.103638,631.743591 1329.504883,630.062744 1329.954102,628.394775 
	C1334.298096,612.270264 1338.839722,596.196045 1342.954102,580.013123 
	C1348.618042,557.735413 1353.426636,535.226379 1359.628418,513.104187 
	C1363.764282,498.351654 1369.760620,484.125458 1374.793335,469.618286 
	C1379.880371,454.954742 1385.403320,440.402954 1389.593140,425.481476 
	C1392.420166,415.412872 1394.386230,404.830322 1394.778076,394.404022 
	C1395.730957,369.046539 1393.703247,343.587280 1398.888550,318.407898 
	C1401.241577,306.982330 1401.874512,295.203857 1404.200928,283.771271 
	C1408.654175,261.886627 1412.164551,239.916550 1410.849976,217.544113 
	C1410.291992,208.049286 1408.168335,198.637817 1406.603638,189.213791 
	C1405.547119,182.850937 1403.559448,176.567596 1403.220825,170.183319 
	C1402.923462,164.576004 1404.564697,158.890244 1404.879639,153.212997 
	C1404.991455,151.196381 1404.210327,147.792923 1402.972412,147.329056 
	C1400.696411,146.476181 1398.027588,145.213409 1395.007812,147.978302 
	C1392.967407,149.846436 1388.628662,149.777924 1385.376831,149.584702 
	C1382.260254,149.399506 1379.225586,147.200546 1376.144653,147.175842 
	C1367.895264,147.109680 1364.755127,142.343918 1362.887573,135.219955 
	C1361.100708,128.403580 1357.635010,122.308029 1352.130493,117.655266 
	C1346.399170,112.810699 1339.912476,108.664673 1334.987061,103.119728 
	C1330.557495,98.132858 1325.666748,97.570862 1319.964600,98.031723 
	C1318.197510,98.174545 1316.437256,99.040474 1314.710449,98.941162 
	C1300.333374,98.114265 1286.155396,100.226349 1272.277222,103.201111 
	C1246.334106,108.761978 1220.447266,114.766869 1194.866699,121.788116 
	C1167.840820,129.206070 1141.102295,137.724564 1114.433594,146.365524 
	C1102.099854,150.361755 1089.833496,155.057877 1079.415771,163.166916 
	C1068.879761,171.367996 1058.538452,179.823349 1048.225342,188.305313 
	C1036.119995,198.261246 1024.051758,208.266083 1012.138245,218.449646 
	C1006.461731,223.301987 1001.160217,228.595383 995.726318,233.728668 
	C989.810303,239.317291 983.614990,244.656631 978.136169,250.648468 
	C972.552429,256.755035 967.924622,263.726501 962.468811,269.960999 
	C949.088440,285.251434 932.716553,296.585754 914.864929,306.152588 
	C904.982422,311.448639 895.552551,317.719574 886.427185,324.260498 
	C877.646667,330.554199 869.521301,337.761963 861.007874,344.649231 
	C859.538940,342.135803 858.016846,339.685486 856.642761,337.154846 
	C847.996826,321.232849 839.860107,305.011292 830.644470,289.427216 
	C817.871582,267.827637 804.363464,246.660431 791.039856,225.389679 
	C782.414856,211.620209 773.712463,197.894043 764.764221,184.333633 
	C753.935059,167.922806 742.724060,151.764374 731.835571,135.392105 
	C719.794312,117.286469 708.277527,98.820930 695.848389,80.988861 
	C689.336792,71.646545 681.880005,62.813618 673.889404,54.696384 
	C666.830078,47.525223 658.699890,41.308773 650.553223,35.338421 
	C643.831238,30.412178 636.832703,25.265333 629.139771,22.443186 
	C622.486511,20.002455 614.690674,20.616716 607.388123,20.025837 
	C602.158264,19.602667 596.594177,18.169853 591.735229,19.394184 
	C582.171082,21.804127 572.492981,24.790075 563.798645,29.331062 
	C555.287292,33.776424 547.854553,40.096409 540.817749,47.116035 
	C531.784363,56.127323 521.173523,63.754326 510.508942,70.880180 
	C498.945312,78.606819 492.395630,90.195381 485.239807,101.201935 
	C480.497131,108.496780 478.137360,117.300247 474.271240,125.213600 
	C464.463196,145.289276 455.629059,165.636246 450.610474,187.594482 
	C445.237518,211.103210 443.042542,234.924561 442.139130,258.881744 
	C441.678253,271.104034 442.446075,283.391907 443.055664,295.630371 
	C443.824341,311.061737 444.642639,326.506470 446.093872,341.883698 
	C447.670044,358.585327 449.595398,375.276947 452.103638,391.861725 
	C454.980499,410.883850 458.097931,429.906006 462.146790,448.705017 
	C466.848938,470.537476 472.297607,492.229889 478.122162,513.794067 
	C483.806915,534.840637 490.822357,555.477600 500.547577,575.094788 
	C503.128021,580.299744 505.309448,585.702515 508.112793,592.000000 
	C505.704803,592.000000 504.133972,592.087524 502.575378,591.986511 
	C487.484680,591.009155 472.401398,589.278198 457.305573,589.166199 
	C433.634644,588.990356 409.906250,587.761719 386.292511,590.957092 
	C374.500854,592.552856 362.400330,592.624634 350.877869,595.284607 
	C330.253021,600.045898 309.821930,605.790161 289.560974,611.949585 
	C260.931152,620.653137 233.733078,632.875366 207.416901,647.121704 
	C178.325638,662.870239 152.502533,682.977417 128.777222,705.839294 
	C118.868759,715.387268 109.324577,725.348938 100.097069,735.558411 
	C89.870392,746.873474 79.648315,758.270264 70.417313,770.388000 
	C58.780338,785.664124 48.008465,801.609863 37.143475,817.458740 
	C31.906893,825.097351 26.924660,832.971008 22.600824,841.147339 
	C20.641953,844.851440 20.789762,849.615417 19.597446,853.788757 
	C14.995849,869.895386 13.223965,886.382507 13.047665,903.042358 
	C12.843102,922.373047 13.045035,941.707642 12.955967,961.040100 
	C12.941005,964.287720 11.668333,967.635620 12.142492,970.760193 
	C13.731822,981.233582 17.578087,991.114258 24.110983,999.353943 
	C32.966583,1010.523010 42.747086,1020.961182 52.181778,1031.667969 
	C62.911903,1043.844727 77.143562,1050.536987 91.925186,1055.893799 
	C107.875977,1061.674316 124.029778,1067.010986 140.360031,1071.597778 
	C159.379379,1076.939819 178.616547,1081.564697 197.885513,1085.945068 
	C222.709183,1091.588135 247.638824,1096.772827 272.561005,1101.971924 
	C286.313110,1104.840698 300.136841,1107.369141 313.940247,1109.988037 
	C326.484253,1112.368164 339.022064,1114.792480 351.603241,1116.961792 
	C366.127258,1119.465942 380.712708,1121.612671 395.239899,1124.099365 
	C408.713196,1126.405518 422.144806,1128.954834 435.658966,1131.408813 
	C435.242615,1132.321533 434.898010,1133.232788 434.431274,1134.076782 
	C425.014587,1151.104614 417.465210,1168.981567 411.363495,1187.400879 
	C406.071808,1203.375000 401.516998,1219.605957 397.057709,1235.838989 
	C393.694153,1248.083374 390.446533,1260.408569 388.130493,1272.880371 
	C384.640045,1291.675903 381.554932,1310.573730 379.160248,1329.536987 
	C377.393433,1343.528198 376.509918,1357.679810 376.122833,1371.784424 
	C375.620056,1390.103394 375.916077,1408.447266 376.047363,1426.779053 
	C376.090942,1432.866577 376.463196,1438.973022 377.079498,1445.030640 
	C378.234436,1456.382690 379.684174,1467.704590 380.997223,1479.040771 
	C381.747955,1485.522217 382.149078,1492.063599 383.277100,1498.477783 
	C385.289368,1509.920532 388.416107,1521.203979 389.821686,1532.707397 
	C391.533234,1546.714966 392.439209,1560.817383 397.038208,1574.279175 
	C400.499084,1584.409424 403.843689,1594.620361 408.088013,1604.428345 
	C411.196381,1611.611450 415.763275,1618.154297 419.512268,1625.073486 
	C421.033356,1627.880859 421.990051,1630.988525 423.409943,1633.857178 
	C427.541138,1642.204102 432.221649,1650.311035 435.839539,1658.870361 
	C439.106720,1666.600098 443.456451,1673.364624 448.958405,1679.629028 
	C452.139771,1683.251587 454.302582,1681.992188 456.404144,1679.049194 
	C463.344727,1669.329712 470.360565,1659.654419 476.978241,1649.716064 
	C488.583618,1632.287354 500.005432,1614.734375 511.336517,1597.125488 
	C522.660461,1579.527832 533.774536,1561.795166 544.988586,1544.126709 
	C557.579102,1524.289429 570.139343,1504.432983 582.785583,1484.631470 
	C595.171326,1465.237793 607.411377,1445.744507 620.170532,1426.598389 
	C628.415771,1414.225830 636.864990,1401.889526 646.338257,1390.461548 
	C657.317322,1377.217041 669.460938,1364.931885 681.206238,1352.330322 
	C692.370483,1340.352173 703.597900,1328.430786 714.935059,1316.616577 
	C727.237427,1303.796753 739.699341,1291.130127 752.089478,1278.394775 
	C753.013977,1277.444458 753.922913,1276.479004 754.835449,1275.517212 
	C767.351624,1262.325562 779.867249,1249.133667 792.264954,1236.066040 
	C803.410095,1249.436035 814.045532,1262.713013 825.262024,1275.479370 
	C833.619202,1284.991333 842.497986,1294.079712 851.580505,1302.908081 
	C858.019897,1309.167236 865.075073,1314.815430 872.052917,1320.493774 
	C885.581909,1331.503418 899.181824,1342.452148 914.872559,1350.361084 
	C934.208252,1360.107544 953.415039,1370.131958 972.984802,1379.386475 
	C1001.557739,1392.898682 1030.401611,1405.837646 1059.135010,1419.010498 
	C1074.724121,1426.157471 1090.352539,1433.219727 1105.911865,1440.431030 
	C1133.431763,1453.185669 1161.136841,1465.569092 1188.342285,1478.965088 
	C1212.525513,1490.873169 1236.136475,1503.942993 1260.615845,1516.964844 
z"/>
<path fill="#000000" opacity="1.000000" stroke="none" 
	d="
M1260.307861,1516.732422 
	C1236.136475,1503.942993 1212.525513,1490.873169 1188.342285,1478.965088 
	C1161.136841,1465.569092 1133.431763,1453.185669 1105.911865,1440.431030 
	C1090.352539,1433.219727 1074.724121,1426.157471 1059.135010,1419.010498 
	C1030.401611,1405.837646 1001.557739,1392.898682 972.984802,1379.386475 
	C953.415039,1370.131958 934.208252,1360.107544 914.872559,1350.361084 
	C899.181824,1342.452148 885.581909,1331.503418 872.052917,1320.493774 
	C865.075073,1314.815430 858.019897,1309.167236 851.580505,1302.908081 
	C842.497986,1294.079712 833.619202,1284.991333 825.262024,1275.479370 
	C814.045532,1262.713013 803.410095,1249.436035 792.264954,1236.066040 
	C779.867249,1249.133667 767.351624,1262.325562 754.835449,1275.517212 
	C753.922913,1276.479004 753.013977,1277.444458 752.089478,1278.394775 
	C739.699341,1291.130127 727.237427,1303.796753 714.935059,1316.616577 
	C703.597900,1328.430786 692.370483,1340.352173 681.206238,1352.330322 
	C669.460938,1364.931885 657.317322,1377.217041 646.338257,1390.461548 
	C636.864990,1401.889526 628.415771,1414.225830 620.170532,1426.598389 
	C607.411377,1445.744507 595.171326,1465.237793 582.785583,1484.631470 
	C570.139343,1504.432983 557.579102,1524.289429 544.988586,1544.126709 
	C533.774536,1561.795166 522.660461,1579.527832 511.336517,1597.125488 
	C500.005432,1614.734375 488.583618,1632.287354 476.978241,1649.716064 
	C470.360565,1659.654419 463.344727,1669.329712 456.404144,1679.049194 
	C454.302582,1681.992188 452.139771,1683.251587 448.958405,1679.629028 
	C443.456451,1673.364624 439.106720,1666.600098 435.839539,1658.870361 
	C432.221649,1650.311035 427.541138,1642.204102 423.409943,1633.857178 
	C421.990051,1630.988525 421.033356,1627.880859 419.512268,1625.073486 
	C415.763275,1618.154297 411.196381,1611.611450 408.088013,1604.428345 
	C403.843689,1594.620361 400.499084,1584.409424 397.038208,1574.279175 
	C392.439209,1560.817383 391.533234,1546.714966 389.821686,1532.707397 
	C388.416107,1521.203979 385.289368,1509.920532 383.277100,1498.477783 
	C382.149078,1492.063599 381.747955,1485.522217 380.997223,1479.040771 
	C379.684174,1467.704590 378.234436,1456.382690 377.079498,1445.030640 
	C376.463196,1438.973022 376.090942,1432.866577 376.047363,1426.779053 
	C375.916077,1408.447266 375.620056,1390.103394 376.122833,1371.784424 
	C376.509918,1357.679810 377.393433,1343.528198 379.160248,1329.536987 
	C381.554932,1310.573730 384.640045,1291.675903 388.130493,1272.880371 
	C390.446533,1260.408569 393.694153,1248.083374 397.057709,1235.838989 
	C401.516998,1219.605957 406.071808,1203.375000 411.363495,1187.400879 
	C417.465210,1168.981567 425.014587,1151.104614 434.431274,1134.076782 
	C434.898010,1133.232788 435.242615,1132.321533 435.658966,1131.408813 
	C422.144806,1128.954834 408.713196,1126.405518 395.239899,1124.099365 
	C380.712708,1121.612671 366.127258,1119.465942 351.603241,1116.961792 
	C339.022064,1114.792480 326.484253,1112.368164 313.940247,1109.988037 
	C300.136841,1107.369141 286.313110,1104.840698 272.561005,1101.971924 
	C247.638824,1096.772827 222.709183,1091.588135 197.885513,1085.945068 
	C178.616547,1081.564697 159.379379,1076.939819 140.360031,1071.597778 
	C124.029778,1067.010986 107.875977,1061.674316 91.925186,1055.893799 
	C77.143562,1050.536987 62.911903,1043.844727 52.181778,1031.667969 
	C42.747086,1020.961182 32.966583,1010.523010 24.110983,999.353943 
	C17.578087,991.114258 13.731822,981.233582 12.142492,970.760193 
	C11.668333,967.635620 12.941005,964.287720 12.955967,961.040100 
	C13.045035,941.707642 12.843102,922.373047 13.047665,903.042358 
	C13.223965,886.382507 14.995849,869.895386 19.597446,853.788757 
	C20.789762,849.615417 20.641953,844.851440 22.600824,841.147339 
	C26.924660,832.971008 31.906893,825.097351 37.143475,817.458740 
	C48.008465,801.609863 58.780338,785.664124 70.417313,770.388000 
	C79.648315,758.270264 89.870392,746.873474 100.097069,735.558411 
	C109.324577,725.348938 118.868759,715.387268 128.777222,705.839294 
	C152.502533,682.977417 178.325638,662.870239 207.416901,647.121704 
	C233.733078,632.875366 260.931152,620.653137 289.560974,611.949585 
	C309.821930,605.790161 330.253021,600.045898 350.877869,595.284607 
	C362.400330,592.624634 374.500854,592.552856 386.292511,590.957092 
	C409.906250,587.761719 433.634644,588.990356 457.305573,589.166199 
	C472.401398,589.278198 487.484680,591.009155 502.575378,591.986511 
	C504.133972,592.087524 505.704803,592.000000 508.112793,592.000000 
	C505.309448,585.702515 503.128021,580.299744 500.547577,575.094788 
	C490.822357,555.477600 483.806915,534.840637 478.122162,513.794067 
	C472.297607,492.229889 466.848938,470.537476 462.146790,448.705017 
	C458.097931,429.906006 454.980499,410.883850 452.103638,391.861725 
	C449.595398,375.276947 447.670044,358.585327 446.093872,341.883698 
	C444.642639,326.506470 443.824341,311.061737 443.055664,295.630371 
	C442.446075,283.391907 441.678253,271.104034 442.139130,258.881744 
	C443.042542,234.924561 445.237518,211.103210 450.610474,187.594482 
	C455.629059,165.636246 464.463196,145.289276 474.271240,125.213600 
	C478.137360,117.300247 480.497131,108.496780 485.239807,101.201935 
	C492.395630,90.195381 498.945312,78.606819 510.508942,70.880180 
	C521.173523,63.754326 531.784363,56.127323 540.817749,47.116035 
	C547.854553,40.096409 555.287292,33.776424 563.798645,29.331062 
	C572.492981,24.790075 582.171082,21.804127 591.735229,19.394184 
	C596.594177,18.169853 602.158264,19.602667 607.388123,20.025837 
	C614.690674,20.616716 622.486511,20.002455 629.139771,22.443186 
	C636.832703,25.265333 643.831238,30.412178 650.553223,35.338421 
	C658.699890,41.308773 666.830078,47.525223 673.889404,54.696384 
	C681.880005,62.813618 689.336792,71.646545 695.848389,80.988861 
	C708.277527,98.820930 719.794312,117.286469 731.835571,135.392105 
	C742.724060,151.764374 753.935059,167.922806 764.764221,184.333633 
	C773.712463,197.894043 782.414856,211.620209 791.039856,225.389679 
	C804.363464,246.660431 817.871582,267.827637 830.644470,289.427216 
	C839.860107,305.011292 847.996826,321.232849 856.642761,337.154846 
	C858.016846,339.685486 859.538940,342.135803 861.007874,344.649231 
	C869.521301,337.761963 877.646667,330.554199 886.427185,324.260498 
	C895.552551,317.719574 904.982422,311.448639 914.864929,306.152588 
	C932.716553,296.585754 949.088440,285.251434 962.468811,269.960999 
	C967.924622,263.726501 972.552429,256.755035 978.136169,250.648468 
	C983.614990,244.656631 989.810303,239.317291 995.726318,233.728668 
	C1001.160217,228.595383 1006.461731,223.301987 1012.138245,218.449646 
	C1024.051758,208.266083 1036.119995,198.261246 1048.225342,188.305313 
	C1058.538452,179.823349 1068.879761,171.367996 1079.415771,163.166916 
	C1089.833496,155.057877 1102.099854,150.361755 1114.433594,146.365524 
	C1141.102295,137.724564 1167.840820,129.206070 1194.866699,121.788116 
	C1220.447266,114.766869 1246.334106,108.761978 1272.277222,103.201111 
	C1286.155396,100.226349 1300.333374,98.114265 1314.710449,98.941162 
	C1316.437256,99.040474 1318.197510,98.174545 1319.964600,98.031723 
	C1325.666748,97.570862 1330.557495,98.132858 1334.987061,103.119728 
	C1339.912476,108.664673 1346.399170,112.810699 1352.130493,117.655266 
	C1357.635010,122.308029 1361.100708,128.403580 1362.887573,135.219955 
	C1364.755127,142.343918 1367.895264,147.109680 1376.144653,147.175842 
	C1379.225586,147.200546 1382.260254,149.399506 1385.376831,149.584702 
	C1388.628662,149.777924 1392.967407,149.846436 1395.007812,147.978302 
	C1398.027588,145.213409 1400.696411,146.476181 1402.972412,147.329056 
	C1404.210327,147.792923 1404.991455,151.196381 1404.879639,153.212997 
	C1404.564697,158.890244 1402.923462,164.576004 1403.220825,170.183319 
	C1403.559448,176.567596 1405.547119,182.850937 1406.603638,189.213791 
	C1408.168335,198.637817 1410.291992,208.049286 1410.849976,217.544113 
	C1412.164551,239.916550 1408.654175,261.886627 1404.200928,283.771271 
	C1401.874512,295.203857 1401.241577,306.982330 1398.888550,318.407898 
	C1393.703247,343.587280 1395.730957,369.046539 1394.778076,394.404022 
	C1394.386230,404.830322 1392.420166,415.412872 1389.593140,425.481476 
	C1385.403320,440.402954 1379.880371,454.954742 1374.793335,469.618286 
	C1369.760620,484.125458 1363.764282,498.351654 1359.628418,513.104187 
	C1353.426636,535.226379 1348.618042,557.735413 1342.954102,580.013123 
	C1338.839722,596.196045 1334.298096,612.270264 1329.954102,628.394775 
	C1329.504883,630.062744 1329.103638,631.743591 1328.439209,634.371277 
	C1335.040527,633.434021 1340.781372,632.668335 1346.505981,631.795166 
	C1356.762329,630.230835 1366.959717,628.066772 1377.270630,627.123535 
	C1393.314697,625.655762 1409.430176,624.945312 1425.521484,624.021973 
	C1433.599609,623.558472 1441.710693,622.809448 1449.773193,623.107056 
	C1467.542480,623.763000 1485.290649,624.994812 1503.046753,626.004211 
	C1514.547485,626.657959 1526.039307,627.569946 1537.548828,627.944092 
	C1554.460571,628.494019 1571.436890,627.948181 1588.290649,629.174866 
	C1611.408936,630.857605 1634.372437,634.031067 1656.816040,640.329895 
	C1683.896606,647.930298 1710.050659,657.861206 1735.520752,669.782349 
	C1760.037476,681.257263 1783.640015,694.306274 1805.619507,710.072388 
	C1819.229980,719.835144 1832.523071,730.125610 1845.257568,741.000183 
	C1858.003174,751.884033 1866.246338,766.514160 1875.115234,780.513245 
	C1878.650146,786.092896 1882.634644,791.447510 1885.594727,797.317932 
	C1890.417969,806.883972 1894.562866,816.791870 1899.005859,826.550171 
	C1900.403320,829.619324 1901.880005,832.652893 1903.246704,835.735352 
	C1906.452026,842.964355 1904.862427,848.706360 1899.078247,853.522522 
	C1892.611206,858.907593 1886.444946,864.656860 1880.203491,870.309326 
	C1870.659912,878.952087 1860.306396,886.183899 1847.828125,890.071411 
	C1840.038452,892.498230 1832.529419,895.987000 1824.622803,897.840332 
	C1810.973877,901.039856 1797.061523,903.097107 1783.354004,906.069153 
	C1762.900024,910.503845 1742.553833,915.433594 1722.114380,919.937439 
	C1698.824219,925.069580 1675.456299,929.849548 1652.169678,934.997009 
	C1630.182007,939.857361 1608.087158,944.372375 1586.365723,950.246277 
	C1573.287109,953.782837 1560.710327,959.329529 1548.129150,964.510193 
	C1533.754883,970.429260 1519.534424,976.745667 1505.414062,983.251892 
	C1487.955078,991.296509 1470.882690,1000.217957 1453.213257,1007.751953 
	C1444.742188,1011.363831 1435.392700,1013.335999 1426.241699,1014.827576 
	C1414.462036,1016.747620 1402.482422,1017.439758 1390.703491,1018.648926 
	C1395.582275,1030.513794 1400.828613,1042.869995 1405.752563,1055.353149 
	C1411.449463,1069.795288 1417.081299,1084.270508 1422.342041,1098.875244 
	C1428.526367,1116.043823 1434.474243,1133.303833 1440.167969,1150.641357 
	C1445.566895,1167.080688 1450.709229,1183.611328 1455.588867,1200.212280 
	C1460.701660,1217.606323 1465.559937,1235.080811 1470.179199,1252.612549 
	C1475.623901,1273.277466 1481.174072,1293.935913 1485.751221,1314.800537 
	C1488.697876,1328.232056 1490.653564,1341.972168 1491.812622,1355.679077 
	C1492.997314,1369.691406 1493.559326,1383.884399 1492.734375,1397.900635 
	C1491.995605,1410.453613 1489.460815,1422.969727 1486.895386,1435.331299 
	C1482.451172,1456.746338 1473.994385,1476.673950 1461.902832,1494.874146 
	C1455.641602,1504.298462 1448.214722,1512.891724 1438.517212,1519.198853 
	C1436.763428,1520.339600 1434.949219,1521.994141 1434.118896,1523.841187 
	C1430.841553,1531.131348 1424.814331,1534.806641 1418.013794,1538.280151 
	C1414.947632,1539.846313 1413.561035,1544.421143 1410.928223,1547.166748 
	C1402.239136,1556.227905 1392.558228,1564.173950 1379.223389,1563.759399 
	C1373.319946,1563.575684 1367.369019,1561.139404 1361.665405,1559.095337 
	C1349.757202,1554.827515 1337.919189,1550.337158 1326.201660,1545.570801 
	C1314.353271,1540.750977 1302.667969,1535.527466 1290.943726,1530.406372 
	C1280.810669,1525.980347 1270.723389,1521.449341 1260.307861,1516.732422 
z"/>
</svg>